<?xml version="1.0" encoding="UTF-8"?><svg id="Layer_1" xmlns="http://www.w3.org/2000/svg" xmlns:xlink="http://www.w3.org/1999/xlink" viewBox="0 0 292.0146 57.0919"><defs><linearGradient id="New_Gradient_Swatch_2" x1="-268.3752" y1="-119.9474" x2="-241.7237" y2="-119.9474" gradientTransform="translate(-75.2981 -239.0899) rotate(-135)" gradientUnits="userSpaceOnUse"><stop offset="0" stop-color="#80c41c"/><stop offset=".333" stop-color="#7dc11c"/><stop offset=".5011" stop-color="#77ba1c"/><stop offset=".6323" stop-color="#6bac1c"/><stop offset=".7445" stop-color="#5a991c"/><stop offset=".8444" stop-color="#44811c"/><stop offset=".9343" stop-color="#2a631c"/><stop offset="1" stop-color="#12491d"/></linearGradient><linearGradient id="New_Gradient_Swatch_2-2" x1="27.2329" y1="13.3935" x2="53.7343" y2="13.3935" gradientTransform="matrix(1,0,0,1,0,0)" xlink:href="#New_Gradient_Swatch_2"/><linearGradient id="New_Gradient_Swatch_2-3" x1="26.1885" y1=".5606" x2="27.7861" y2=".5606" gradientTransform="matrix(1,0,0,1,0,0)" xlink:href="#New_Gradient_Swatch_2"/><linearGradient id="New_Gradient_Swatch_2-4" x1="27.7861" y1=".0233" x2="27.8745" y2=".0233" gradientTransform="matrix(1,0,0,1,0,0)" xlink:href="#New_Gradient_Swatch_2"/><linearGradient id="New_Gradient_Swatch_2-5" x1="1.5966" y1="13.3763" x2="28.2479" y2="13.3763" gradientTransform="matrix(1,0,0,1,0,0)" xlink:href="#New_Gradient_Swatch_2"/></defs><path d="m6.9433,38.3898H0v-4.8003h19.4868v4.8003h-6.9438v18.0781h-5.5997v-18.0781Z" fill="#12491d"/><path d="m21.6636,33.5895h5.5356v7.2319c0,.832-.064,1.4082-.064,1.4082h.064c.9277-1.6328,2.8477-2.625,5.0234-2.625,3.3282,0,5.92,1.5371,5.92,6.1758v10.6875h-5.5357v-9.6631c0-1.5361-.6079-2.1768-1.8242-2.1768-1.6958,0-2.8154.9922-3.2954,2.4327-.2241.6396-.2881,1.3437-.2881,2.1123v7.2949h-5.5356v-22.8784Z" fill="#12491d"/><path d="m49.4067,39.6046c4.8633,0,7.6153,3.3926,7.6153,7.9678,0,.5439-.128,1.7275-.128,1.7275h-10.3994c.416,2.0156,2.0801,2.9443,3.8399,2.9443,2.3676,0,4.5439-1.664,4.5439-1.664l2.0479,3.8721s-2.6563,2.3994-7.0396,2.3994c-5.8877,0-9.0557-4.2549-9.0557-8.6397,0-4.831,3.2642-8.6074,8.5757-8.6074Zm2.0479,6.5273c0-1.247-.8643-2.3671-2.1758-2.3671-1.6001,0-2.3682,1.1523-2.6563,2.3671h4.8321Z" fill="#12491d"/><path d="m62.9912,19.2867h12.9487c3.7959,0,5.6162.2598,7.2281.8838,4.2124,1.6123,6.8642,5.4082,6.8642,10.8164,0,3.9522-1.8721,8.2681-5.5639,10.1411v.1036s.5195.6757,1.4038,2.2363l7.228,13h-10.1401l-6.6041-12.5332h-4.2646v12.5332h-9.1001V19.2867Zm13.0522,16.8491c2.9122,0,4.7325-1.6127,4.7325-4.5766,0-2.8086-1.0401-4.4727-5.6162-4.4727h-3.0684v9.0493h3.9521Z" fill="#12491d"/><path d="m110.4683,29.0631c8.476,0,15.2363,5.668,15.2363,14.0923,0,8.373-6.7603,13.9365-15.1846,13.9365s-15.1846-5.5635-15.1846-13.9365c0-8.4243,6.7603-14.0923,15.1329-14.0923Zm.0517,20.5405c3.2764,0,6.084-2.4443,6.084-6.4482,0-4.0567-2.8076-6.6035-6.084-6.6035s-6.084,2.5468-6.084,6.6035c0,4.0039,2.8076,6.4482,6.084,6.4482Z" fill="#12491d"/><path d="m143.5395,29.0631c8.4761,0,15.2369,5.668,15.2369,14.0923,0,8.373-6.7608,13.9365-15.1851,13.9365s-15.1846-5.5635-15.1846-13.9365c0-8.4243,6.7603-14.0923,15.1328-14.0923Zm.0518,20.5405c3.2764,0,6.084-2.4443,6.084-6.4482,0-4.0567-2.8076-6.6035-6.084-6.6035s-6.084,2.5468-6.084,6.6035c0,4.0039,2.8076,6.4482,6.084,6.4482Z" fill="#12491d"/><path d="m165.1182,37.1749h-3.2754v-7.02h3.2754v-1.0918c0-8.7886,7.957-9.9844,12.2724-9.9844,1.6123,0,2.7041.1558,2.7041.1558v7.5923s-.624-.104-1.456-.104c-1.7686,0-4.5245.312-4.5245,2.6001v.832h4.9405v7.02h-4.9405v19.293h-8.996v-19.293Z" fill="#12491d"/><path d="m195.4346,29.0631c7.9043,0,12.375,5.5117,12.375,12.9477,0,.8848-.2071,2.8086-.2071,2.8086h-16.9004c.6758,3.2754,3.3789,4.7842,6.2403,4.7842,3.8476,0,7.3838-2.7041,7.3838-2.7041l3.3281,6.293s-4.3154,3.8994-11.4404,3.8994c-9.5684,0-14.7168-6.917-14.7168-14.04,0-7.8531,5.3046-13.9888,13.9375-13.9888Zm3.3281,10.6079c0-2.0273-1.4043-3.8477-3.5371-3.8477-2.5996,0-3.8477,1.8711-4.3164,3.8477h7.8535Z" fill="#12491d"/><path d="m212.6963,29.6871h8.6328v4.5239c0,.8843-.1035,1.6641-.1035,1.6641h.1035c1.1445-3.6401,4.5234-6.6562,8.5283-6.6562.5205,0,1.0401.104,1.0401.104v8.8403s-.7286-.1563-1.8204-.1563c-2.1318,0-5.6152.6758-6.916,4.6797-.3125.9883-.4687,2.1856-.4687,3.6407v10.1406h-8.9961v-26.7808Z" fill="#12491d"/><path d="m236.4961,33.5895h5.5996v18.0786h9.3428v4.7998h-14.9424v-22.8784Z" fill="#12491d"/><path d="m254.5117,33.5895h5.5996v18.0786h9.3428v4.7998h-14.9424v-22.8784Z" fill="#12491d"/><path d="m282.7988,33.2057c5.6631,0,8.5752,3.2309,8.5752,3.2309l-2.5918,4.2246s-2.5596-2.3359-5.7275-2.3359c-4.3838,0-6.4639,3.2314-6.4639,6.5273,0,3.3916,2.2402,6.879,6.4639,6.879,3.456,0,6.0791-2.8145,6.0791-2.8145l2.8808,4.0957s-3.2324,3.8389-9.2158,3.8389c-7.167,0-11.999-5.0869-11.999-11.8711,0-6.6553,5.1191-11.7749,11.999-11.7749Z" fill="#12491d"/><path d="m30.3022,19.2335c1.1216,0,2.6807.6523,3.4678,1.4502l4.5747,4.6333c.7861.7964.5142,1.4487-.6059,1.4487H2.6479c-1.1211,0-1.3696-.6289-.5561-1.3984l5.0073-4.7339c.8145-.769,2.397-1.3989,3.5171-1.3989l19.686-.001Z" fill="url(#New_Gradient_Swatch_2)"/><path d="m53.2808,25.2569L28.4678.4459c-.2012-.2012-.399-.3374-.5933-.4116.2437.1138.3887.4565.3721,1.0073l-.1944,6.8872c-.0219.7754-.354,1.7588-.8193,2.5567l15.437,14.8686c.8047.7764,2.3828,1.4063,3.5029,1.3984l6.5103-.0424c1.1201-.0064,1.3867-.6602.5977-1.4532Z" fill="url(#New_Gradient_Swatch_2-2)"/><path d="m26.1885,1.1212l.6757-.6753c.357-.3584.6768-.4893.9219-.4336" fill="url(#New_Gradient_Swatch_2-3)"/><path d="m27.7861.0123c.0308.0098.0586.0108.0884.022-.0273-.0122-.0576-.0147-.0884-.022Z" fill="url(#New_Gradient_Swatch_2-4)"/><path d="m27.8745.0343c-.0298-.0112-.0576-.0122-.0884-.022-.2451-.0557-.5649.0752-.9219.4336l-.6757.6753L2.0517,25.2569c-.791.793-.5249,1.4468.5962,1.4532l6.5122.0424c1.1187.0079,2.6832-.6342,3.4756-1.4262l13.92-13.9214c.2436-.2427.4726-.565.6772-.9194.4653-.7979.7974-1.7813.8193-2.5567l.1944-6.8872c.0166-.5508-.1284-.8935-.3721-1.0073Z" fill="url(#New_Gradient_Swatch_2-5)"/></svg>